<svg width="11" height="11" viewBox="0 0 11 11" fill="none" xmlns="http://www.w3.org/2000/svg">
<path d="M11 3.21654V2.7485C11 2.40478 10.7108 2.12514 10.3553 2.12514H0.64466C0.289201 2.12514 0 2.40478 0 2.7485V3.21654H11Z" fill="#F5A623"/>
<path d="M0 3.67804H11V5.34908H0V3.67804Z" fill="#F5A623"/>
<path d="M0 5.2944V9.08703C0 9.43075 0.289201 9.71039 0.64466 9.71039H10.3553C10.7108 9.71039 11 9.43075 11 9.08703V5.2944H0ZM7.52632 6.82109H6.02241C5.84439 6.82109 5.70008 6.68154 5.70008 6.50941C5.70008 6.33728 5.84439 6.19773 6.02241 6.19773H7.52632C7.70434 6.19773 7.84865 6.33728 7.84865 6.50941C7.84865 6.68154 7.70434 6.82109 7.52632 6.82109Z" fill="#F5A623"/>
</svg>
