<svg width="14" height="13" viewBox="0 0 14 13" fill="none" xmlns="http://www.w3.org/2000/svg">
<path fill-rule="evenodd" clip-rule="evenodd" d="M1 0.403442V3.92194H4.49101V0.403442H1ZM3.49372 2.91665H1.99756V1.40871H3.49372V2.91665Z" fill="#919EAB"/>
<path fill-rule="evenodd" clip-rule="evenodd" d="M1 0.403442V3.92194H4.49101V0.403442H1ZM3.49372 2.91665H1.99756V1.40871H3.49372V2.91665Z" fill="black" fill-opacity="0.01"/>
<path d="M1 3.92194H0.650272V4.27167H1V3.92194ZM1 0.403442V0.0537148H0.650272V0.403442H1ZM4.49101 3.92194V4.27167H4.84074V3.92194H4.49101ZM4.49101 0.403442H4.84074V0.0537148H4.49101V0.403442ZM1.99756 2.91665H1.64783V3.26638H1.99756V2.91665ZM3.49372 2.91665V3.26638H3.84345V2.91665H3.49372ZM1.99756 1.40871V1.05898H1.64783V1.40871H1.99756ZM3.49372 1.40871H3.84345V1.05898H3.49372V1.40871ZM1.34973 3.92194V0.403442H0.650272V3.92194H1.34973ZM4.49101 3.57222H1V4.27167H4.49101V3.57222ZM4.14128 0.403442V3.92194H4.84074V0.403442H4.14128ZM1 0.75317H4.49101V0.0537148H1V0.75317ZM1.99756 3.26638H3.49372V2.56692H1.99756V3.26638ZM1.64783 1.40871V2.91665H2.34729V1.40871H1.64783ZM3.49372 1.05898H1.99756V1.75844H3.49372V1.05898ZM3.84345 2.91665V1.40871H3.14399V2.91665H3.84345Z" fill="#919EAB"/>
<path fill-rule="evenodd" clip-rule="evenodd" d="M1.00012 8.94836V12.467H4.49113V8.94836H1.00012ZM3.49384 11.4618H1.99768V9.95386H3.49384V11.4618Z" fill="#919EAB"/>
<path fill-rule="evenodd" clip-rule="evenodd" d="M1.00012 8.94836V12.467H4.49113V8.94836H1.00012ZM3.49384 11.4618H1.99768V9.95386H3.49384V11.4618Z" fill="black" fill-opacity="0.01"/>
<path d="M1.00012 12.467H0.650394V12.8167H1.00012V12.467ZM1.00012 8.94836V8.59864H0.650394V8.94836H1.00012ZM4.49113 12.467V12.8167H4.84086V12.467H4.49113ZM4.49113 8.94836H4.84086V8.59864H4.49113V8.94836ZM1.99768 11.4618H1.64795V11.8115H1.99768V11.4618ZM3.49384 11.4618V11.8115H3.84357V11.4618H3.49384ZM1.99768 9.95386V9.60414H1.64795V9.95386H1.99768ZM3.49384 9.95386H3.84357V9.60414H3.49384V9.95386ZM1.34985 12.467V8.94836H0.650394V12.467H1.34985ZM4.49113 12.1173H1.00012V12.8167H4.49113V12.1173ZM4.14141 8.94836V12.467H4.84086V8.94836H4.14141ZM1.00012 9.29809H4.49113V8.59864H1.00012V9.29809ZM1.99768 11.8115H3.49384V11.1121H1.99768V11.8115ZM1.64795 9.95386V11.4618H2.34741V9.95386H1.64795ZM3.49384 9.60414H1.99768V10.3036H3.49384V9.60414ZM3.84357 11.4618V9.95386H3.14411V11.4618H3.84357Z" fill="#919EAB"/>
<path fill-rule="evenodd" clip-rule="evenodd" d="M9.47839 0.403442V3.92194H12.9694V0.403442H9.47839ZM11.9717 2.91665H10.4756V1.40871H11.9717V2.91665Z" fill="#919EAB"/>
<path fill-rule="evenodd" clip-rule="evenodd" d="M9.47839 0.403442V3.92194H12.9694V0.403442H9.47839ZM11.9717 2.91665H10.4756V1.40871H11.9717V2.91665Z" fill="black" fill-opacity="0.01"/>
<path d="M9.47839 3.92194H9.12867V4.27167H9.47839V3.92194ZM9.47839 0.403442V0.0537148H9.12867V0.403442H9.47839ZM12.9694 3.92194V4.27167H13.3191V3.92194H12.9694ZM12.9694 0.403442H13.3191V0.0537148H12.9694V0.403442ZM10.4756 2.91665H10.1259V3.26638H10.4756V2.91665ZM11.9717 2.91665V3.26638H12.3215V2.91665H11.9717ZM10.4756 1.40871V1.05898H10.1259V1.40871H10.4756ZM11.9717 1.40871H12.3215V1.05898H11.9717V1.40871ZM9.82812 3.92194V0.403442H9.12867V3.92194H9.82812ZM12.9694 3.57222H9.47839V4.27167H12.9694V3.57222ZM12.6197 0.403442V3.92194H13.3191V0.403442H12.6197ZM9.47839 0.75317H12.9694V0.0537148H9.47839V0.75317ZM10.4756 3.26638H11.9717V2.56692H10.4756V3.26638ZM10.1259 1.40871V2.91665H10.8253V1.40871H10.1259ZM11.9717 1.05898H10.4756V1.75844H11.9717V1.05898ZM12.3215 2.91665V1.40871H11.622V2.91665H12.3215Z" fill="#919EAB"/>
<path d="M5.48865 0.403442V1.40879H7.48348V3.92192H8.48097V0.403442H5.48865Z" fill="#919EAB"/>
<path d="M5.48865 0.403442V1.40879H7.48348V3.92192H8.48097V0.403442H5.48865Z" fill="black" fill-opacity="0.01" stroke="#919EAB" stroke-width="0.699455"/>
<path d="M6.48614 11.4618V8.94836H5.48865V12.467H7.48348V11.4618H6.48614Z" fill="#919EAB"/>
<path d="M6.48614 11.4618V8.94836H5.48865V12.467H7.48348V11.4618H6.48614Z" fill="black" fill-opacity="0.01" stroke="#919EAB" stroke-width="0.699455"/>
<rect x="11.9719" y="4.92719" width="0.99749" height="2.01069" fill="#919EAB"/>
<rect x="11.9719" y="4.92719" width="0.99749" height="2.01069" fill="black" fill-opacity="0.01" stroke="#919EAB" stroke-width="0.699455"/>
<path d="M10.9745 4.92719H7.48334V6.93787H8.48083V5.93253H10.9745V4.92719Z" fill="#919EAB"/>
<path d="M10.9745 4.92719H7.48334V6.93787H8.48083V5.93253H10.9745V4.92719Z" fill="black" fill-opacity="0.01" stroke="#919EAB" stroke-width="0.699455"/>
<rect x="2.995" y="6.93787" width="3.49114" height="1.00519" fill="#919EAB"/>
<rect x="2.995" y="6.93787" width="3.49114" height="1.00519" fill="black" fill-opacity="0.01" stroke="#919EAB" stroke-width="0.699455"/>
<path d="M5.48861 2.414V4.92729H1.00012V7.94317H1.99761V5.93263H6.4861V2.414H5.48861Z" fill="#919EAB"/>
<path d="M5.48861 2.414V4.92729H1.00012V7.94317H1.99761V5.93263H6.4861V2.414H5.48861Z" fill="black" fill-opacity="0.01" stroke="#919EAB" stroke-width="0.699455"/>
<path fill-rule="evenodd" clip-rule="evenodd" d="M10.4757 7.44037C9.09845 7.44037 7.98218 8.56543 7.98218 9.95382C7.98218 11.3419 9.09845 12.4669 10.4757 12.4669C11.853 12.4669 12.9694 11.3419 12.9694 9.95382C12.9694 8.56543 11.853 7.44037 10.4757 7.44037ZM10.2993 11.0644L8.97705 9.73134L9.50592 9.19826L10.2993 9.99793L11.4453 8.84286L11.9742 9.37589L10.2993 11.0644Z" fill="#919EAB"/>
</svg>
