<svg width="12" height="9" viewBox="0 0 12 9" fill="none" xmlns="http://www.w3.org/2000/svg">
<path d="M11.0357 8.25333H0.525516C0.236486 8.25333 0 7.98152 0 7.64932V1.00519C0 0.672981 0.236486 0.401169 0.525516 0.401169H11.0357C11.3248 0.401169 11.5612 0.672981 11.5612 1.00519V7.64932C11.5612 7.98152 11.3247 8.25333 11.0357 8.25333Z" fill="#959EA9"/>
<path d="M9.98481 7.64935H1.57664C1.57664 6.98494 1.1037 6.44134 0.525635 6.44134V2.21326C1.1037 2.21326 1.57664 1.66966 1.57664 1.00525H9.98481C9.98481 1.66966 10.4578 2.21326 11.0358 2.21326V6.44134C10.4578 6.44134 9.98481 6.98494 9.98481 7.64935Z" fill="#959EA9"/>
<path d="M5.78088 7.04533C6.9418 7.04533 7.88292 5.82842 7.88292 4.32728C7.88292 2.82615 6.9418 1.60924 5.78088 1.60924C4.61995 1.60924 3.67883 2.82615 3.67883 4.32728C3.67883 5.82842 4.61995 7.04533 5.78088 7.04533Z" fill="#FBEED8"/>
<path d="M2.62769 4.93133C2.91792 4.93133 3.15321 4.66091 3.15321 4.32732C3.15321 3.99373 2.91792 3.7233 2.62769 3.7233C2.33745 3.7233 2.10217 3.99373 2.10217 4.32732C2.10217 4.66091 2.33745 4.93133 2.62769 4.93133Z" fill="#FBEED8"/>
<path d="M8.9339 4.93133C9.22414 4.93133 9.45942 4.66091 9.45942 4.32732C9.45942 3.99373 9.22414 3.7233 8.9339 3.7233C8.64367 3.7233 8.40839 3.99373 8.40839 4.32732C8.40839 4.66091 8.64367 4.93133 8.9339 4.93133Z" fill="#FBEED8"/>
<path d="M6.04355 4.02533H5.51804C5.36038 4.02533 5.25529 3.90452 5.25529 3.72334C5.25529 3.54213 5.3604 3.42134 5.51804 3.42134H6.3063C6.46396 3.42134 6.56905 3.30053 6.56905 3.11934C6.56905 2.93813 6.46394 2.81735 6.3063 2.81735H6.04355C6.04355 2.63614 5.93844 2.51535 5.78081 2.51535C5.62315 2.51535 5.51806 2.63616 5.51806 2.81735C5.07137 2.81735 4.7298 3.20995 4.7298 3.72336C4.7298 4.23678 5.07137 4.62938 5.51806 4.62938H6.04358C6.20123 4.62938 6.30632 4.75019 6.30632 4.93137C6.30632 5.11258 6.20121 5.23337 6.04358 5.23337H5.25531C5.09766 5.23337 4.99257 5.35418 4.99257 5.53537C4.99257 5.71657 5.09768 5.83736 5.25531 5.83736H5.51806C5.51806 6.01857 5.62317 6.13936 5.78081 6.13936C5.93846 6.13936 6.04355 6.01854 6.04355 5.83736C6.49024 5.83736 6.83182 5.44476 6.83182 4.93135C6.83182 4.41793 6.49024 4.02533 6.04355 4.02533Z" fill="#333333"/>
</svg>
